<?xml version="1.0" standalone="no"?>
<!DOCTYPE svg PUBLIC "-//W3C//DTD SVG 20010904//EN"
 "http://www.w3.org/TR/2001/REC-SVG-20010904/DTD/svg10.dtd">
<svg version="1.0" xmlns="http://www.w3.org/2000/svg"
 width="700.000000pt" height="700.000000pt" viewBox="0 0 700.000000 700.000000"
 preserveAspectRatio="xMidYMid meet">
<metadata>
Created by potrace 1.11, written by Peter Selinger 2001-2013
</metadata>
<g transform="translate(0.000000,700.000000) scale(0.100000,-0.100000)"
fill="#000000" stroke="none">
<path d="M3444 5802 c-12 -9 -57 -80 -101 -157 -44 -77 -216 -376 -383 -665
-167 -289 -311 -538 -320 -555 -10 -16 -93 -160 -185 -320 -93 -159 -180 -310
-194 -335 -89 -155 -158 -276 -175 -303 -73 -126 -269 -466 -304 -527 -22 -39
-131 -228 -188 -327 -77 -131 -150 -259 -153 -268 -2 -5 -9 -17 -16 -25 -7 -8
-26 -40 -42 -70 -17 -30 -64 -114 -106 -186 -42 -72 -79 -143 -82 -157 -14
-53 49 -114 106 -104 13 3 148 41 299 85 151 44 455 132 675 196 220 63 441
127 490 141 50 15 97 28 105 30 8 2 77 22 153 44 75 23 179 53 230 67 50 14
112 31 137 39 238 70 539 157 555 160 11 3 49 14 85 25 l65 20 125 -64 c69
-35 346 -175 615 -311 270 -137 572 -290 673 -341 197 -100 224 -106 269 -62
36 37 35 75 -5 148 -19 36 -43 76 -52 90 -9 14 -31 50 -47 80 -17 30 -63 111
-103 180 -40 69 -81 141 -92 160 -11 19 -154 267 -318 550 -164 283 -306 531
-317 550 -20 35 -74 128 -205 355 -38 66 -74 129 -80 140 -7 11 -117 202 -246
425 -210 363 -499 864 -672 1165 -35 60 -73 118 -84 127 -27 22 -85 22 -112 0z
m146 -413 c0 -5 11 -26 23 -47 13 -20 35 -57 49 -82 40 -72 607 -1053 617
-1070 6 -8 25 -42 44 -75 19 -33 49 -86 67 -118 l32 -58 -53 22 c-30 12 -72
27 -94 35 -22 8 -49 18 -60 23 -11 5 -36 14 -55 21 -19 7 -44 16 -55 21 -11 5
-38 15 -60 23 -71 25 -176 64 -360 133 l-180 68 1 40 c1 35 12 228 19 325 1
19 5 87 9 150 4 63 9 135 11 159 2 24 7 96 11 160 4 64 8 132 9 151 2 19 4 59
4 88 1 33 5 51 11 47 6 -3 10 -11 10 -16z m-215 -136 c-2 -38 -7 -111 -10
-163 -12 -209 -16 -258 -20 -320 -2 -36 -7 -101 -9 -145 -5 -76 -13 -196 -21
-313 -3 -53 -11 -66 -92 -150 -21 -22 -180 -196 -206 -226 -10 -12 -55 -61
-100 -111 -207 -227 -449 -492 -507 -555 -14 -15 -41 -45 -59 -66 -44 -50
-210 -231 -236 -259 -16 -18 -139 -153 -180 -199 -48 -55 -115 -124 -115 -120
0 3 16 33 36 67 20 34 45 77 56 96 32 57 211 368 285 496 39 66 148 255 243
420 95 165 229 397 298 515 68 118 136 235 150 260 14 25 34 59 44 75 10 17
21 37 25 45 3 8 21 39 40 68 18 29 33 54 33 56 0 3 102 179 151 261 10 17 27
47 39 68 51 94 152 267 156 267 2 0 2 -30 -1 -67z m29 -1255 c13 -29 40 -89
61 -133 127 -269 155 -328 155 -331 0 -1 25 -55 55 -119 30 -65 55 -118 55
-120 0 -2 23 -51 50 -110 141 -297 190 -409 183 -416 -4 -4 -33 -14 -63 -22
-51 -14 -598 -171 -950 -274 -231 -67 -351 -102 -720 -208 -184 -53 -404 -116
-487 -141 -154 -44 -177 -50 -158 -36 6 4 58 59 115 122 58 63 107 117 110
120 3 3 45 50 95 105 49 55 92 102 95 105 3 3 46 50 95 105 50 55 99 109 110
120 11 12 54 59 95 105 41 46 80 88 85 94 13 13 120 131 184 201 25 28 68 75
95 105 119 130 149 163 295 325 85 94 162 177 170 186 15 15 119 129 205 227
21 23 40 42 42 42 2 0 15 -24 28 -52z m643 -117 c238 -88 437 -161 443 -161 7
0 9 -8 5 -21 -9 -26 -373 -751 -383 -761 -4 -4 -26 34 -49 85 -23 51 -81 175
-129 277 -47 102 -121 262 -164 355 -43 94 -101 219 -129 278 -56 119 -57 121
-38 115 6 -3 206 -78 444 -167z m848 -756 c136 -236 300 -520 363 -630 63
-110 137 -236 163 -280 26 -44 46 -81 44 -83 -4 -4 -144 66 -630 313 -165 84
-368 187 -452 229 l-152 77 198 393 c207 411 211 419 216 414 1 -2 114 -196
250 -433z"/>
</g>
</svg>
